<svg viewBox="0 0 20 20" fill="none" xmlns="http://www.w3.org/2000/svg">
	<defs>
		<style>
			.f{ 
				fill: ${color};
				stroke: none; }
		</style>
	</defs>
	<g class="f">
		<path d="M2.92026 0C2.98846 0.364668 3.04762 0.67508 3.10443 0.985943C3.18636 1.43414 3.26942 1.88219 3.34576 2.33136C3.36641 2.45301 3.41883 2.50166 3.54657 2.52348C4.27599 2.64817 5.0033 2.78528 5.73124 2.91862C5.76593 2.92498 5.79982 2.93574 5.83333 2.97228C5.32613 3.06465 4.81886 3.15683 4.3117 3.24947C4.05241 3.2968 3.79425 3.35169 3.5336 3.38947C3.42046 3.40588 3.37704 3.44881 3.35699 3.56131C3.22899 4.27984 3.09259 4.99695 2.95858 5.71444C2.95109 5.75458 2.94019 5.79409 2.89329 5.83333C2.83001 5.49354 2.76642 5.15381 2.70348 4.81398C2.62621 4.39667 2.54416 3.98016 2.47593 3.56142C2.45698 3.44508 2.40606 3.4093 2.2975 3.39011C1.53238 3.25481 0.768382 3.11296 0 2.93834C0.314366 2.88051 0.628694 2.8226 0.943059 2.76492C1.40574 2.68004 1.86781 2.59151 2.33162 2.51317C2.44869 2.49338 2.46095 2.42257 2.4774 2.33185C2.61217 1.58893 2.74997 0.846578 2.88716 0.104073C2.89011 0.0881947 2.89688 0.0729938 2.9203 3.7605e-05L2.92026 0Z" />
		<path d="M16.2536 14.1665C16.3218 14.5312 16.381 14.8416 16.4378 15.1524C16.5197 15.6006 16.6028 16.0487 16.6791 16.4979C16.6997 16.6195 16.7522 16.6682 16.8799 16.69C17.6093 16.8147 18.3366 16.9518 19.0646 17.0851C19.0993 17.0915 19.1332 17.1022 19.1667 17.1388C18.6595 17.2312 18.1522 17.3233 17.645 17.416C17.3857 17.4633 17.1276 17.5182 16.8669 17.556C16.7538 17.5724 16.7104 17.6153 16.6903 17.7278C16.5623 18.4463 16.4259 19.1635 16.2919 19.8809C16.2844 19.9211 16.2735 19.9606 16.2266 19.9998C16.1633 19.66 16.0998 19.3203 16.0368 18.9805C15.9595 18.5632 15.8775 18.1467 15.8093 17.7279C15.7903 17.6116 15.7394 17.5758 15.6308 17.5566C14.8657 17.4213 14.1017 17.2795 13.3333 17.1048C13.6477 17.047 13.962 16.9891 14.2764 16.9314C14.7391 16.8465 15.2011 16.758 15.665 16.6797C15.782 16.6599 15.7943 16.5891 15.8107 16.4984C15.9455 15.7554 16.0833 15.0131 16.2205 14.2706C16.2234 14.2547 16.2302 14.2395 16.2536 14.1665L16.2536 14.1665Z" />
		<path fill-rule="evenodd" clip-rule="evenodd" d="M17.7603 10.0803C18.7789 8.40567 18.9634 6.78352 18.3706 5.51236C18.1411 5.02002 17.7962 4.58315 17.3472 4.21544C17.0373 3.45372 16.2897 2.91673 15.4167 2.91673C15.1398 2.91673 14.8755 2.97075 14.6338 3.06884C14.5826 3.06003 14.5311 3.05165 14.4791 3.04371C12.5499 2.74884 10.1678 3.08495 7.81903 4.18018C5.4703 5.27541 3.68164 6.88415 2.66743 8.55158C1.64886 10.2262 1.46435 11.8483 2.0571 13.1195C2.64985 14.3906 4.01108 15.292 5.94863 15.5881C6.44039 15.6633 6.96157 15.6975 7.50413 15.6885C7.50139 15.7365 7.5 15.7848 7.5 15.8334C7.5 16.1327 7.55258 16.4196 7.64901 16.6856C4.65875 16.7686 2.14172 15.6672 1.15079 13.5421C-0.40525 10.2052 2.39101 5.60793 7.39641 3.27388C12.4018 0.939821 17.7209 1.75281 19.2769 5.08975C20.833 8.42668 18.0367 13.0239 13.0313 15.358C12.8509 15.4421 12.6701 15.5221 12.4891 15.5981C12.4568 15.2523 12.3541 14.9269 12.1954 14.6365C12.3332 14.5775 12.471 14.5159 12.6087 14.4517C14.9574 13.3564 16.7461 11.7477 17.7603 10.0803Z" />
		<path fill-rule="evenodd" clip-rule="evenodd" d="M8.13889 4.86615C10.0495 3.9752 12.014 3.67582 13.6391 3.91301C13.4645 4.19788 13.3565 4.52795 13.3367 4.88159C11.9583 4.71711 10.2564 4.98214 8.56151 5.77246C6.8159 6.58645 5.49229 7.76441 4.74283 8.96221C3.98721 10.1698 3.87684 11.2731 4.25906 12.0927C4.64128 12.9124 5.55735 13.537 6.96814 13.7344C7.4703 13.8047 8.01803 13.8167 8.59463 13.7655C8.21861 14.0216 7.91605 14.3775 7.72513 14.7952C5.69465 14.7527 4.02805 13.9635 3.35275 12.5154C2.20677 10.0578 4.3496 6.63313 8.13889 4.86615ZM17.1153 6.20659C16.9072 6.49911 16.6253 6.73557 16.2969 6.88889C16.5089 7.66087 16.3378 8.62633 15.6849 9.66972C14.9354 10.8675 13.6118 12.0455 11.8662 12.8595C11.411 13.0718 10.9552 13.2462 10.5053 13.3845C10.9682 13.4795 11.3845 13.7025 11.7155 14.0149C11.9069 13.9377 12.0982 13.8547 12.2889 13.7658C16.0321 12.0203 18.1686 8.65712 17.1153 6.20659Z" />
		<path fill-rule="evenodd" clip-rule="evenodd" d="M9.06131 6.9919C10.8769 6.14526 12.6941 5.93451 13.8203 6.33854C14.0517 6.61409 14.353 6.82887 14.697 6.95549C14.7446 7.0221 14.7859 7.09276 14.8208 7.16746C15.426 8.46544 13.8287 10.4913 11.2531 11.6923C8.79644 12.8379 6.33701 12.8192 5.58993 11.6887C5.88038 11.9347 6.25619 12.0831 6.66667 12.0831C7.15281 12.0831 7.59034 11.875 7.895 11.543C8.71854 11.5251 9.75651 11.2868 10.8305 10.786C12.0071 10.2373 12.9145 9.51924 13.4445 8.84709C14.0144 8.12429 13.9725 7.7146 13.9144 7.59008C13.8564 7.46556 13.5695 7.17014 12.6494 7.14209C11.7939 7.11602 10.6605 7.34955 9.48393 7.89821C8.75611 8.2376 8.1313 8.64181 7.63511 9.05988C7.36216 8.86467 7.02783 8.7498 6.66667 8.7498C6.60685 8.7498 6.54777 8.75295 6.48958 8.75909C7.13085 8.10333 8.01542 7.47961 9.06131 6.9919Z" />
		<circle cx="10" cy="15.8332" r="1.66667" />
		<circle cx="15.4167" cy="5" r="1.25" />
		<circle cx="6.66667" cy="10.4168" r="0.833333" />
	</g>
</svg>




