<svg viewBox="0 0 80 80" fill="none" xmlns="http://www.w3.org/2000/svg">
	<defs>
		<style>
			.f{ 
				fill: ${color};
				stroke: none; }
		</style>
	</defs>

	<g class="f">
		<path d="M0 56.3107C0.257014 56.88 0.461207 57.4671 0.72971 58.0278C2.16075 61.0163 4.39993 63.2373 7.23573 64.8953C9.75513 66.3685 12.4892 67.2226 15.3454 67.7421C18.0469 68.2336 20.7734 68.3256 23.5013 68.1838C27.2725 67.9879 30.9607 67.2731 34.5725 66.1693C37.7417 65.2008 40.7953 63.9495 43.733 62.4178C47.0854 60.67 50.2243 58.6011 53.1137 56.1578C54.2794 55.172 55.4025 54.1399 56.4523 53.0332C58.7011 50.6624 60.6696 48.0845 62.1958 45.1817C63.4814 42.7363 64.4187 40.1721 64.7418 37.4223C65.2672 32.9522 64.2606 28.9059 61.2587 25.449C59.1356 23.0042 56.4541 21.4031 53.4479 20.3073C51.042 19.4303 48.549 18.9516 45.9981 18.7318C44.4872 18.6015 42.9749 18.5641 41.4651 18.62C39.0596 18.7091 36.6729 19.0021 34.3131 19.4909C34.213 19.5117 34.1113 19.5279 34.0095 19.5361C33.9537 19.5405 33.8963 19.5237 33.7506 19.5053C35.2909 18.9968 36.7685 18.5957 38.2586 18.2452C40.4884 17.7208 42.7433 17.3303 45.0212 17.082C47.4204 16.8206 49.8277 16.7666 52.2377 16.8489C54.8669 16.9386 57.4659 17.2755 60.0201 17.9082C63.8029 18.8453 67.335 20.3366 70.4107 22.7778C73.7237 25.4073 76.0209 28.7201 77.0442 32.8572C77.7699 35.7912 77.7362 38.7409 77.1269 41.6881C76.2129 46.1091 74.1991 50.0238 71.5667 53.6477C70.0416 55.7472 68.3188 57.6771 66.4442 59.4673C64.412 61.408 62.2299 63.1696 59.9181 64.7689C57.1293 66.6979 54.1967 68.379 51.1249 69.8127C47.1798 71.654 43.0891 73.0808 38.8401 74.0436C36.3167 74.6154 33.7672 75.0072 31.187 75.2283C29.0607 75.4104 26.9314 75.4438 24.8083 75.3352C20.2207 75.1006 15.7722 74.2207 11.5954 72.2138C9.42015 71.1686 7.43437 69.8565 5.67351 68.1961C3.09874 65.7684 1.35601 62.8546 0.464599 59.4357C0.198563 58.4153 0.0296103 57.374 0.000230621 56.3108L0 56.3107ZM64.6474 57.3397C64.6676 57.3371 64.6879 57.3346 64.7081 57.332C64.7238 57.2725 64.7441 57.2139 64.7546 57.1536C64.9916 55.7936 65.2341 54.4345 65.4587 53.0725C65.5079 52.7737 65.6113 52.6138 65.9402 52.5696C66.5477 52.4879 67.1483 52.3549 67.7514 52.2409C68.541 52.0915 69.3301 51.9397 70.194 51.7748C70.0438 51.7315 69.9732 51.7047 69.9001 51.6909C68.606 51.4459 67.3138 51.1901 66.0159 50.9672C65.6836 50.9101 65.5061 50.8087 65.456 50.4483C65.3468 49.6636 65.1953 48.8848 65.0575 48.1042C64.9437 47.4595 64.8248 46.8157 64.7081 46.1715C64.3937 47.603 64.1236 49.022 63.899 50.4481C63.8409 50.8172 63.6798 50.9088 63.348 50.9666C61.9709 51.2064 60.5994 51.4786 59.1336 51.7564C59.3515 51.8065 59.4741 51.8393 59.5985 51.8626C60.8807 52.1028 62.1624 52.3457 63.4463 52.5771C63.7197 52.6264 63.8393 52.7401 63.8876 53.0354C64.1226 54.4731 64.3907 55.9055 64.6472 57.3397H64.6474Z" />
		<path d="M44.2857 58.494C43.5587 58.7557 42.8346 59.0263 42.104 59.2775C38.6561 60.4625 35.1256 61.3066 31.5106 61.7791C30.1159 61.9614 28.7131 62.0707 27.305 62.1319C26.3041 62.1753 25.3034 62.1982 24.3056 62.1658C19.406 62.0068 14.6547 61.1727 10.256 58.8822C6.72341 57.0427 3.86726 54.4924 2.08698 50.8632C0.743146 48.1236 0.307927 45.2247 0.578667 42.1977C0.719782 40.6202 1.07365 39.0947 1.54272 37.5881C1.62523 37.3232 1.73658 37.2662 2.00293 37.3128C2.98502 37.4846 2.98595 37.4748 3.15351 38.4309C3.27705 39.136 3.40351 39.8406 3.52774 40.5456C3.54339 40.6343 3.55558 40.7229 3.65058 40.8055C3.83171 39.8012 4.02187 38.8141 4.18026 37.822C4.22082 37.5678 4.32299 37.489 4.56119 37.4473C5.49232 37.2844 6.41928 37.0978 7.46376 36.898C6.89506 36.6878 6.40394 36.6554 5.93055 36.5535C5.46826 36.454 5.00189 36.3721 4.53536 36.2943C4.32176 36.2586 4.21889 36.1804 4.18126 35.9381C4.03606 35.0034 3.86179 34.073 3.6842 33.1438C3.6414 32.9198 3.71327 32.7455 3.8176 32.5647C4.94236 30.6153 6.25904 28.8039 7.74206 27.1126C11.8267 22.4543 16.7295 18.8604 22.1986 16.0007C27.1481 13.4127 32.3667 11.5951 37.8495 10.5416C39.6836 10.1891 41.5355 9.95758 43.4003 9.81307C45.0767 9.68322 46.7545 9.63479 48.43 9.70041C51.833 9.83358 55.1803 10.328 58.4182 11.4338C61.0721 12.3402 63.533 13.602 65.714 15.3809C65.8613 15.5011 65.9975 15.6348 66.1473 15.7697C66.0191 15.8695 65.9368 15.7795 65.8576 15.7428C63.1981 14.5096 60.3962 13.7796 57.5054 13.3483C54.8708 12.9552 52.2201 12.8636 49.5685 12.9926C45.8753 13.1721 42.2437 13.7834 38.6785 14.7724C35.4866 15.6578 32.4009 16.8189 29.4202 18.2686C25.9357 19.9635 22.6739 22.0033 19.7131 24.503C16.331 27.3584 13.4589 30.6402 11.5055 34.6523C10.4256 36.8703 9.72461 39.1942 9.57378 41.6766C9.33951 45.5328 10.4839 48.9242 12.9484 51.8773C14.8947 54.2095 17.3626 55.8341 20.1205 57.0417C23.0302 58.3158 26.0892 59.0122 29.2369 59.3743C31.4857 59.6329 33.7411 59.6673 35.9938 59.5636C38.7188 59.4383 41.4179 59.0627 44.0815 58.457C44.1417 58.4433 44.2032 58.4353 44.2641 58.4247C44.2712 58.4478 44.2784 58.4709 44.2856 58.4939L44.2857 58.494Z" />
		<path d="M40.3999 49.0575C38.4281 49.8484 36.3966 50.4148 34.3094 50.7766C32.9332 51.0152 31.5472 51.1388 30.1476 51.1765C27.0072 51.2608 23.9601 50.8482 21.1015 49.494C18.5469 48.2837 16.5703 46.4697 15.553 43.7601C14.8906 41.9956 14.8439 40.1778 15.2124 38.3484C15.7493 35.6832 17.0549 33.3926 18.757 31.3147C21.0884 28.4687 23.9582 26.2838 27.1835 24.544C30.7379 22.6266 34.5055 21.3692 38.5161 20.8469C40.1093 20.6395 41.7081 20.5551 43.309 20.6467C45.9405 20.7973 48.4897 21.3138 50.8536 22.5405C51.66 22.959 52.4234 23.4468 53.0763 24.1183C52.7207 23.9814 52.3654 23.844 52.0096 23.7078C50.5168 23.1362 48.9649 22.8243 47.3805 22.6516C46.3728 22.5417 45.3629 22.4921 44.3499 22.5165C41.7236 22.5797 39.1538 23.0017 36.6373 23.7502C33.4424 24.7005 30.4575 26.0939 27.7457 28.0396C25.0536 29.9712 22.7676 32.2772 21.3295 35.3118C20.2079 37.6785 19.8557 40.1281 20.7545 42.656C21.4767 44.6871 22.8781 46.1641 24.6711 47.2953C26.6818 48.5637 28.9122 49.1981 31.2461 49.514C32.4659 49.6792 33.6945 49.7769 34.9236 49.725C36.7648 49.6473 38.5974 49.466 40.4001 49.0576L40.3999 49.0575Z" />
		<path d="M42.8123 25.9388C44.475 25.7616 46.031 25.9041 47.5572 26.3079C49.2521 26.7562 50.81 27.4752 51.9935 28.8282C52.8178 29.7706 53.3519 30.8542 53.5197 32.1074C53.827 34.4027 52.9691 36.3533 51.7502 38.2089C51.0534 39.2697 50.1644 40.1572 49.2395 41.0007C47.7551 42.3545 46.0451 43.3772 44.2307 44.2364C43.3152 44.67 42.3657 45.0093 41.4061 45.3117C40.1177 45.7177 38.802 46.0089 37.4441 46.114C36.8474 46.1602 36.2397 46.2399 35.6527 46.2265C34.5362 46.2011 33.4121 46.1462 32.3128 45.8712C30.9495 45.5302 29.6722 45.0119 28.5436 44.1649C27.8247 43.6254 27.215 42.9851 26.7734 42.1126C27.1525 42.3076 27.48 42.4666 27.7986 42.6417C28.4394 42.994 29.1331 43.205 29.8352 43.377C31.0782 43.6816 32.3454 43.8384 33.6249 43.7799C34.5521 43.7375 35.4763 43.6643 36.4007 43.5182C37.6698 43.3175 38.8955 42.9703 40.0851 42.5308C42.142 41.7709 44.0496 40.7215 45.7358 39.2913C46.9692 38.2451 48.0315 37.0584 48.767 35.6173C49.8284 33.5378 50.041 31.4176 48.7513 29.3521C47.888 27.9696 46.5726 27.1306 45.0584 26.5743C44.353 26.3152 43.6266 26.1444 42.8123 25.9388Z" />
		<path d="M18.1468 0C18.2858 0.747369 18.4064 1.38354 18.5222 2.02064C18.6893 2.9392 18.8586 3.85745 19.0142 4.77801C19.0563 5.02732 19.1632 5.12702 19.4236 5.17175C20.9106 5.4273 22.3933 5.70829 23.8774 5.98158C23.9481 5.99461 24.0172 6.01666 24.0855 6.09154C23.0515 6.28085 22.0173 6.46977 20.9834 6.65962C20.4548 6.75663 19.9285 6.86914 19.3971 6.94656C19.1665 6.98018 19.078 7.06816 19.0371 7.29873C18.7762 8.77134 18.4981 10.241 18.2249 11.7115C18.2096 11.7937 18.1874 11.8747 18.0918 11.9551C17.9628 11.2587 17.8332 10.5625 17.7048 9.86602C17.5473 9.01077 17.38 8.15714 17.2409 7.29896C17.2023 7.06053 17.0985 6.9872 16.8772 6.94787C15.3174 6.67057 13.7599 6.37986 12.1934 6.02198C12.8343 5.90346 13.4751 5.78479 14.116 5.66657C15.0592 5.49261 16.0012 5.31117 16.9468 5.15062C17.1854 5.11006 17.2104 4.96493 17.2439 4.77902C17.5187 3.25644 17.7996 1.73502 18.0793 0.213292C18.0853 0.180751 18.0991 0.149597 18.1469 7.70696e-05L18.1468 0Z" />
		<path d="M75.2682 65.6591C75.3882 66.294 75.5115 66.9283 75.6274 67.564C75.737 68.1657 75.8469 68.7676 75.9408 69.3718C75.9848 69.6542 76.1857 69.6993 76.4055 69.7395C77.5951 69.9572 78.7847 70.1749 80 70.3973C79.9041 70.5784 79.7249 70.5551 79.5991 70.5787C78.5469 70.7761 77.4915 70.9574 76.4363 71.1383C76.1304 71.1908 75.9761 71.3037 75.9215 71.6665C75.7425 72.8581 75.495 74.0394 75.2534 75.3348C75.0492 74.8265 75.0291 74.3878 74.9426 73.9679C74.7782 73.1695 74.6204 72.3679 74.5125 71.5605C74.4711 71.2515 74.304 71.1871 74.0762 71.146C73.0352 70.9577 71.9928 70.7771 70.9514 70.5914C70.7823 70.5612 70.6153 70.5193 70.442 70.4041C70.9339 70.3116 71.4253 70.2161 71.9179 70.1272C72.6706 69.9913 73.4247 69.8635 74.1767 69.7239C74.3415 69.6933 74.4494 69.6255 74.4872 69.4078C74.7049 68.1536 74.9531 66.9047 75.191 65.6541C75.2167 65.6557 75.2425 65.6574 75.2682 65.6591Z" />
		<path d="M36.0627 38.8637C35.4008 38.9913 34.742 39.1404 34.0757 39.2373C33.7551 39.2838 33.6249 39.413 33.58 39.7272C33.4806 40.4218 33.3468 41.1114 33.211 41.8954C33.0379 41.4943 33.0335 41.1428 32.9619 40.81C32.884 40.4481 32.8175 40.0819 32.7783 39.7142C32.746 39.4118 32.6075 39.286 32.307 39.2427C31.7511 39.1625 31.201 39.0417 30.6491 38.9347C30.5262 38.9109 30.4057 38.8739 30.2867 38.788C30.9753 38.657 31.662 38.5143 32.3536 38.4011C32.6072 38.3596 32.7177 38.2636 32.7577 38.0012C32.8673 37.2831 33.0107 36.5701 33.1501 35.8035C33.2931 35.9908 33.2833 36.1825 33.3154 36.3523C33.4151 36.8796 33.5117 37.4083 33.5806 37.9402C33.6197 38.2412 33.7527 38.3675 34.0546 38.4133C34.7223 38.5146 35.3841 38.6557 36.0482 38.7805C36.0531 38.8082 36.0579 38.8359 36.0628 38.8636L36.0627 38.8637Z" />
		<path d="M26.2493 11.3031C26.1315 10.6764 26.0024 10.0515 25.9021 9.42204C25.8681 9.20829 25.7897 9.12331 25.5747 9.08876C24.9456 8.98775 24.3207 8.8602 23.6909 8.67552C24.2826 8.56957 24.8728 8.45513 25.4663 8.36152C25.7364 8.31895 25.881 8.21532 25.9233 7.91921C26.0098 7.31365 26.1403 6.71433 26.3105 6.10962C26.4157 6.67878 26.5462 7.24494 26.6171 7.81834C26.6629 8.18817 26.8293 8.32836 27.1854 8.37571C27.7538 8.45128 28.3157 8.57674 28.8856 8.74269C28.313 8.84632 27.743 8.97001 27.1667 9.0462C26.8033 9.09424 26.6559 9.24885 26.614 9.61829C26.5493 10.1874 26.415 10.7486 26.3103 11.3131C26.29 11.3098 26.2697 11.3064 26.2494 11.3031H26.2493Z" />
		<path d="M22.0672 0.107621C22.1178 0.382911 22.1944 0.656504 22.2123 0.933876C22.2341 1.27001 22.4138 1.39184 22.7161 1.42832C22.9927 1.46163 23.273 1.48901 23.6074 1.62488C23.2325 1.69374 22.9296 1.76113 22.6232 1.80177C22.3845 1.83346 22.2605 1.93687 22.2307 2.18571C22.1944 2.48822 22.1239 2.78665 22.0554 3.15509C21.904 2.80816 21.8783 2.50388 21.8369 2.20568C21.8021 1.95569 21.6851 1.8303 21.4246 1.80185C21.1245 1.76908 20.8286 1.69605 20.5275 1.57645C20.861 1.50983 21.1926 1.43071 21.5286 1.38136C21.7137 1.35414 21.7845 1.28011 21.8094 1.09404C21.8529 0.767545 21.9313 0.445603 21.9952 0.12181C22.0192 0.117029 22.0432 0.112325 22.0671 0.107544L22.0672 0.107621Z" />
		<path d="M3.51168 33.1571C3.43704 34.153 3.17987 35.1195 3.03567 36.1041C3.01716 36.2304 2.91537 36.2663 2.81497 36.2852C2.55333 36.3344 2.28984 36.3734 1.9632 36.427C2.42386 35.2742 2.89594 34.1836 3.51531 33.1608L3.51168 33.1571Z" />
		<path d="M68.2048 67.942C68.4307 67.7854 68.6589 67.8185 68.8684 67.7784C69.1057 67.733 69.2453 67.6821 69.2567 67.387C69.2649 67.1729 69.291 66.9303 69.4234 66.7192C69.4995 66.8335 69.5294 66.9504 69.5454 67.0746C69.631 67.7361 69.6322 67.7337 70.2725 67.8185C70.3961 67.8348 70.5163 67.8765 70.6583 67.9115C70.478 68.0623 70.2768 68.075 70.0992 68.0749C69.6536 68.0748 69.5617 68.3502 69.5498 68.7041C69.5444 68.8607 69.5071 69.0036 69.437 69.1419C69.4241 69.1332 69.4087 69.1286 69.4068 69.1207C69.3291 68.8035 69.346 68.395 69.1499 68.1942C68.9538 67.9935 68.5248 68.0837 68.2048 67.942H68.2048Z" />
		<path d="M3.51524 33.1608L3.53575 33.1429L3.51169 33.1571L3.51524 33.1608Z" />
		<path d="M64.6474 57.3398C64.3909 55.9056 64.1227 54.4733 63.8878 53.0354C63.8395 52.7402 63.7199 52.6264 63.4464 52.5772C62.1626 52.3458 60.8809 52.1029 59.5986 51.8626C59.4743 51.8394 59.3516 51.8066 59.1337 51.7565C60.5995 51.4787 61.9711 51.2065 63.3482 50.9667C63.68 50.9089 63.841 50.8172 63.8992 50.4482C64.1236 49.0221 64.3938 47.6031 64.7083 46.1716C64.825 46.8158 64.944 47.4596 65.0577 48.1043C65.1955 48.8849 65.3469 49.6637 65.4561 50.4484C65.5063 50.8088 65.6838 50.9102 66.016 50.9673C67.3139 51.1902 68.6062 51.446 69.9003 51.691C69.9733 51.7048 70.0439 51.7316 70.1942 51.7749C69.3302 51.9398 68.5411 52.0916 67.7515 52.241C67.1485 52.355 66.5479 52.4881 65.9404 52.5697C65.6114 52.6139 65.5081 52.7738 65.4588 53.0726C65.2343 54.4346 64.9918 55.7937 64.7547 57.1537C64.7442 57.214 64.724 57.2727 64.7082 57.332C64.688 57.3347 64.6677 57.3372 64.6475 57.3398H64.6474Z" />
	</g>
</svg>
