<svg viewBox="0 0 16 16" fill="none" xmlns="http://www.w3.org/2000/svg">
	<defs>
		<style>
			.f{ 
				fill: ${color};
				stroke: none; }
		</style>
	</defs>
	<g class="f">
		<path d="M15.9263 0.0375977H15.9369L15.937 7.58088C15.937 7.58283 15.9362 7.58469 15.9348 7.58607C15.9333 7.58745 15.9313 7.58822 15.9292 7.58822L7.34329 7.65666C7.34228 7.65668 7.34127 7.65645 7.34032 7.65597C7.33937 7.65549 7.33851 7.65478 7.33779 7.65388C7.33706 7.65298 7.33648 7.65191 7.33608 7.65072C7.33569 7.64953 7.33548 7.64826 7.33548 7.64697V1.29838C7.3355 1.2969 7.33639 1.29542 7.33797 1.29421C7.33955 1.293 7.34172 1.29215 7.34407 1.29182C10.1826 0.87817 13.0209 0.464056 15.8589 0.0494727C15.8918 0.0445768 15.9143 0.0406185 15.9263 0.0375977ZM0.0620422 3.91166V2.29447L6.54204 1.41088C6.54301 1.41077 6.54399 1.41086 6.54491 1.41116C6.54584 1.41146 6.54669 1.41194 6.54742 1.41259C6.54814 1.41324 6.54872 1.41404 6.54911 1.41493C6.5495 1.41582 6.5497 1.41678 6.5497 1.41775C6.55053 2.83765 6.55079 4.25781 6.55048 5.67822C6.55048 5.68041 6.55079 5.68249 6.55142 5.68447C6.55329 5.68999 6.55423 5.69442 6.55423 5.69775V7.6626C6.55423 7.66397 6.5535 7.66528 6.55222 7.66624C6.55093 7.66721 6.54918 7.66775 6.54735 7.66775L0.0971985 7.70463C0.0764693 7.70473 0.0661047 7.69437 0.0661047 7.67354C0.0659485 7.344 0.0711047 3.9165 0.0620422 3.91166ZM6.54204 14.6501C4.38532 14.357 2.22892 14.0584 0.072511 13.7613C0.0706942 13.7611 0.0690324 13.76 0.067828 13.7584C0.0666236 13.7568 0.0659566 13.7546 0.0659485 13.7524V8.354C0.0659493 8.35292 0.0661532 8.35185 0.0665482 8.35086C0.0669432 8.34986 0.0675213 8.34896 0.0682488 8.3482C0.0689763 8.34745 0.0698385 8.34685 0.0707849 8.34645C0.0717314 8.34605 0.0727432 8.34586 0.073761 8.34588L6.5386 8.38838C6.54101 8.38838 6.54331 8.38928 6.54501 8.3909C6.54671 8.39251 6.54767 8.39469 6.54767 8.39697L6.55157 14.6431C6.55156 14.6441 6.55129 14.6451 6.55079 14.6461C6.55029 14.647 6.54957 14.6478 6.54867 14.6485C6.54777 14.6491 6.54671 14.6496 6.54557 14.6499C6.54443 14.6502 6.54322 14.6503 6.54204 14.6501ZM7.32735 12.437C7.32939 10.8323 7.31939 9.77275 7.3247 8.44166C7.3247 8.43955 7.32542 8.43752 7.32671 8.43603C7.328 8.43453 7.32975 8.43369 7.33157 8.43369L15.9292 8.44728C15.9315 8.44728 15.9338 8.44826 15.9354 8.44999C15.9371 8.45171 15.938 8.45406 15.938 8.4565L15.9366 15.9556C15.9366 15.9565 15.9364 15.9575 15.936 15.9584C15.9356 15.9593 15.9351 15.96 15.9344 15.9607C15.9337 15.9613 15.9329 15.9618 15.932 15.9621C15.9312 15.9623 15.9303 15.9624 15.9294 15.9623L7.34735 14.751C7.34488 14.7507 7.34261 14.7496 7.34095 14.7479C7.33929 14.7462 7.33835 14.7441 7.33829 14.7418C7.32392 13.9785 7.3311 13.214 7.33173 12.4507C7.33173 12.4465 7.33079 12.4459 7.32892 12.4424C7.32789 12.4408 7.32735 12.4389 7.32735 12.437Z" />
	</g>
</svg>
