<svg viewBox="0 0 20 20" fill="none" xmlns="http://www.w3.org/2000/svg">
	<defs>
		<style>
			.f{ 
				fill: ${color};
				stroke: none; }
		</style>
	</defs>
	<g class="f">
		<path fill-rule="evenodd" clip-rule="evenodd" d="M15.8333 5.4165C15.143 5.4165 14.5833 4.85685 14.5833 4.1665C14.5833 3.47615 15.143 2.9165 15.8333 2.9165C16.5237 2.9165 17.0833 3.47615 17.0833 4.1665C17.0833 4.85685 16.5237 5.4165 15.8333 5.4165ZM14.5833 9.99984C14.5833 10.6902 15.143 11.2498 15.8333 11.2498C16.5237 11.2498 17.0833 10.6902 17.0833 9.99984C17.0833 9.30946 16.5237 8.74984 15.8333 8.74984C15.143 8.74984 14.5833 9.30946 14.5833 9.99984ZM4.16667 17.0832C3.47632 17.0832 2.91667 16.5235 2.91667 15.8332C2.91667 15.1428 3.47632 14.5832 4.16667 14.5832C4.85702 14.5832 5.41667 15.1428 5.41667 15.8332C5.41667 16.5235 4.85702 17.0832 4.16667 17.0832ZM8.75 15.8332C8.75 16.5235 9.30963 17.0832 10 17.0832C10.6904 17.0832 11.25 16.5235 11.25 15.8332C11.25 15.1428 10.6904 14.5832 10 14.5832C9.30963 14.5832 8.75 15.1428 8.75 15.8332ZM14.5833 15.8332C14.5833 16.5235 15.143 17.0832 15.8333 17.0832C16.5237 17.0832 17.0833 16.5235 17.0833 15.8332C17.0833 15.1428 16.5237 14.5832 15.8333 14.5832C15.143 14.5832 14.5833 15.1428 14.5833 15.8332ZM10 11.2498C9.30963 11.2498 8.75 10.6902 8.75 9.99984C8.75 9.30946 9.30963 8.74984 10 8.74984C10.6904 8.74984 11.25 9.30946 11.25 9.99984C11.25 10.6902 10.6904 11.2498 10 11.2498ZM2.91667 9.99984C2.91667 10.6902 3.47632 11.2498 4.16667 11.2498C4.85702 11.2498 5.41667 10.6902 5.41667 9.99984C5.41667 9.30946 4.85702 8.74984 4.16667 8.74984C3.47632 8.74984 2.91667 9.30946 2.91667 9.99984ZM8.75 4.1665C8.75 4.85685 9.30963 5.4165 10 5.4165C10.6904 5.4165 11.25 4.85685 11.25 4.1665C11.25 3.47615 10.6904 2.9165 10 2.9165C9.30963 2.9165 8.75 3.47615 8.75 4.1665ZM4.16667 5.4165C3.47632 5.4165 2.91667 4.85685 2.91667 4.1665C2.91667 3.47615 3.47632 2.9165 4.16667 2.9165C4.85702 2.9165 5.41667 3.47615 5.41667 4.1665C5.41667 4.85685 4.85702 5.4165 4.16667 5.4165Z" />
	</g>
</svg>
